<svg xmlns="http://www.w3.org/2000/svg" viewBox="151 82 100 100">
  <g fill="#e45265">
    <path d="M200.369 96.454l-.504-.039v-4.638c0-1.197-.46-3.204-3.537-3.204s-3.536 2.007-3.536 3.204v4.627c-.201.018-.377.035-.505.05-14.308 1.614-25.07 11.663-25.07 23.451 0 .954.052 1.904.155 2.817a66.07 66.07 0 00.544 4.274c.09.55.178 1.108.269 1.687.31 1.99.66 4.244 1.319 7.153.784 3.475 1.69 6.637 2.552 8.902 3.097 8.161 10.612 17.034 20.417 18.461.092.016.23.032.372.047l.448.053.025-3.274-.017-.223-.276-.04c-6.05-.873-13.836-6.158-17.601-15.996-.737-1.929-1.518-4.693-2.32-8.216a35.078 35.078 0 01-.358-1.767c3.065 3.795 7.053 6.501 12.147 8.253l.067.026c2.022.82 4.539 1.84 6.589 4.188.147.168.28.332.39.467a.448.448 0 00.38.214c.41 0 .45-.732.45-.74a.5.5 0 00-.045-.196 5.133 5.133 0 00-.083-.166l-.114-.209a15.028 15.028 0 00-.253-.445 14.234 14.234 0 00-2.306-2.982c-1.855-1.866-3.811-2.972-5.321-3.732a19.985 19.985 0 01-.47-.217c-1.972-.937-3.641-1.936-5.106-3.054a18.04 18.04 0 01-1.413-1.177l-.138-.127c-.171-.16-.351-.333-.537-.518l-.137-.136c-1.705-1.722-3.998-4.585-5.244-8.453-.451-1.279-.968-3.052-.968-5.434 0-11.067 11.526-20.07 25.694-20.07s25.694 9.003 25.694 20.07c0 2.383-.517 4.156-.97 5.44-1.245 3.863-3.537 6.726-5.243 8.448l-.135.135c-.187.185-.367.358-.537.517l-.14.127a17.87 17.87 0 01-1.415 1.18c-1.461 1.116-3.131 2.115-5.103 3.052-.127.06-.34.161-.482.223-1.497.754-3.452 1.86-5.31 3.726a14.27 14.27 0 00-2.305 2.982c-.085.144-.168.291-.252.444l-.191.362a.45.45 0 00-.051.21c0 .008.04.74.449.74a.457.457 0 00.35-.172c.13-.164.27-.337.42-.509 2.05-2.348 4.568-3.368 6.589-4.188l.055-.022c5.105-1.756 9.094-4.462 12.158-8.257-.095.528-.19 1.038-.356 1.768-.804 3.526-1.584 6.29-2.321 8.215-3.764 9.838-11.552 15.123-17.606 15.997l-.32.046.02 3.494.473-.056a7.81 7.81 0 00.379-.047c9.809-1.427 17.325-10.3 20.422-18.46.862-2.269 1.768-5.43 2.552-8.904.655-2.9 1.009-5.16 1.32-7.153l.016-.107c.084-.54.167-1.065.252-1.58.105-.635.456-2.819.569-4.27.089-.933.13-1.802.13-2.82 0-11.789-10.762-21.838-25.07-23.452"/>
    <path d="M196.29 110.657c-11.69 0-21.442 5.984-21.809 13.98 2.047 4.39 5.78 8.49 10.984 11.048l.118.055c1.563.837 3.241 1.816 5.27 3.856a15.104 15.104 0 012.437 3.154c.086.149.171.298.257.454l.122.225c.233.443.381.848.512 1.206.041.113.081.223.123.33h.003c.823 2.755.648 7.343.648 11.294 0 2.614-.014 10.768-.049 15.175a36.226 36.226 0 002.821-.002c-.035-4.408-.087-12.544-.087-15.154 0-3.952-.176-8.541.65-11.295l.115-.312c.144-.394.292-.8.521-1.236l.123-.224c.085-.158.174-.313.262-.464a15.119 15.119 0 012.436-3.151c1.934-1.946 3.965-3.092 5.518-3.874.158-.071.357-.164.473-.22 3.231-1.534 5.477-3.233 7.2-5.136.026-.4.042-.331.028-.825-.12-4.583-3.388-8.37-6.254-9.832.323-.392 1.26-.983 1.794-1.137.824-.238 1.366-.191 1.715-.062 1.19.603 2.795 2.087 3.88 4.173.875 1.684 1.28 2.764 1.398 4.149.293-.5.516-1.461.635-2.042-.264-8.08-10.035-14.133-21.845-14.133"/>
    <path d="M193.217 171.37l-.295-.009c-22.895-1.745-40.847-21.132-40.847-44.134 0-24.408 19.857-44.266 44.266-44.266 24.408 0 44.265 19.858 44.265 44.266 0 23.031-17.976 42.42-40.926 44.14l-.295.021.005-.27v-3.283l.233-.019c10.158-.814 19.594-5.398 26.568-12.909 7.019-7.557 10.884-17.388 10.884-27.68 0-22.46-18.274-40.734-40.734-40.734-22.461 0-40.734 18.273-40.734 40.734 0 10.283 3.858 20.106 10.865 27.662 6.957 7.501 16.373 12.09 26.513 12.921l.232.02z"/>
  </g>
</svg>